# xmcd
# 
# Track frame offsets:
#     150
#     18480
#     33352
#     48975
#     75182
#     89272
#     107180
#     128840
#     141422
#     166992
#     187272
#     199762
#     211482
#     244485
#     262087
#     273807
# 
# Disc length: 3896
# 
# Revision: 21
# Processed by: cddbd v1.5.2PL0 Copyright (c) Steve Scherf et al.
# Submitted via: fre:ac v1.0.17
# 
DISCID=e70f3610
DTITLE=Gal Costa - Acústico MTV
DYEAR=1998
DGENRE=MPB
TTITLE0=Baby
TTITLE1=Coração Vagabundo
TTITLE2=Não Identificado
TTITLE3=London, London
TTITLE4=Só Louco
TTITLE5=Barato Total
TTITLE6=Lanterna Dos Afogados
TTITLE7=Teco-Teco
TTITLE8=Pérola Negra - Como 2 E 2
TTITLE9=Sua Estupidez
TTITLE10=Falsa Baiana
TTITLE11=Camisa Amarela
TTITLE12=Vapor Barato - Flor Da Pele
TTITLE13=Você Não Entende Nada
TTITLE14=Paula E Bebeto
TTITLE15=Aquarela Do Brasil
EXTD=YEAR: 1998
EXTT0=
EXTT1=
EXTT2=
EXTT3=
EXTT4=
EXTT5=
EXTT6=
EXTT7=
EXTT8=
EXTT9=
EXTT10=
EXTT11=
EXTT12=
EXTT13=
EXTT14=
EXTT15=
PLAYORDER=
